<meta message track_name name='Track 0\x00' time=0>
<meta message time_signature numerator=4 denominator=4 clocks_per_click=36 notated_32nd_notes_per_beat=8 time=0>
<meta message time_signature numerator=4 denominator=4 clocks_per_click=36 notated_32nd_notes_per_beat=8 time=0>
note_on channel=0 note=36 velocity=100 time=0
note_on channel=0 note=38 velocity=100 time=0
note_on channel=0 note=39 velocity=100 time=0
note_off channel=0 note=36 velocity=64 time=24
note_off channel=0 note=38 velocity=64 time=0
note_off channel=0 note=39 velocity=64 time=0
note_on channel=0 note=39 velocity=100 time=24
note_off channel=0 note=39 velocity=64 time=24
note_on channel=0 note=37 velocity=100 time=24
note_on channel=0 note=38 velocity=100 time=0
note_on channel=0 note=39 velocity=100 time=0
note_off channel=0 note=37 velocity=64 time=24
note_off channel=0 note=38 velocity=64 time=0
note_off channel=0 note=39 velocity=64 time=0
note_on channel=0 note=39 velocity=100 time=24
note_off channel=0 note=39 velocity=64 time=24
note_on channel=0 note=36 velocity=100 time=24
note_on channel=0 note=38 velocity=100 time=0
note_on channel=0 note=39 velocity=100 time=0
note_off channel=0 note=36 velocity=64 time=24
note_off channel=0 note=38 velocity=64 time=0
note_off channel=0 note=39 velocity=64 time=0
note_on channel=0 note=39 velocity=100 time=24
note_off channel=0 note=39 velocity=64 time=24
note_on channel=0 note=37 velocity=100 time=24
note_on channel=0 note=38 velocity=100 time=0
note_on channel=0 note=39 velocity=100 time=0
note_off channel=0 note=37 velocity=64 time=24
note_off channel=0 note=38 velocity=64 time=0
note_off channel=0 note=39 velocity=64 time=0
note_on channel=0 note=39 velocity=100 time=24
note_off channel=0 note=39 velocity=64 time=24
note_on channel=0 note=36 velocity=100 time=24
note_on channel=0 note=38 velocity=100 time=0
note_on channel=0 note=39 velocity=100 time=0
note_off channel=0 note=36 velocity=64 time=24
note_off channel=0 note=38 velocity=64 time=0
note_off channel=0 note=39 velocity=64 time=0
note_on channel=0 note=39 velocity=100 time=24
note_off channel=0 note=39 velocity=64 time=24
note_on channel=0 note=37 velocity=100 time=24
note_on channel=0 note=38 velocity=100 time=0
note_on channel=0 note=39 velocity=100 time=0
note_off channel=0 note=37 velocity=64 time=24
note_off channel=0 note=38 velocity=64 time=0
note_off channel=0 note=39 velocity=64 time=0
note_on channel=0 note=39 velocity=100 time=24
note_off channel=0 note=39 velocity=64 time=24
note_on channel=0 note=36 velocity=100 time=24
note_on channel=0 note=38 velocity=100 time=0
note_on channel=0 note=39 velocity=100 time=0
note_off channel=0 note=36 velocity=64 time=24
note_off channel=0 note=38 velocity=64 time=0
note_off channel=0 note=39 velocity=64 time=0
note_on channel=0 note=39 velocity=100 time=24
note_off channel=0 note=39 velocity=64 time=24
note_on channel=0 note=37 velocity=100 time=24
note_on channel=0 note=38 velocity=100 time=0
note_on channel=0 note=39 velocity=100 time=0
note_off channel=0 note=37 velocity=64 time=24
note_off channel=0 note=38 velocity=64 time=0
note_off channel=0 note=39 velocity=64 time=0
note_on channel=0 note=39 velocity=100 time=24
note_off channel=0 note=39 velocity=64 time=24
note_on channel=0 note=36 velocity=100 time=24
note_on channel=0 note=38 velocity=100 time=0
note_on channel=0 note=39 velocity=100 time=0
note_off channel=0 note=36 velocity=64 time=24
note_off channel=0 note=38 velocity=64 time=0
note_off channel=0 note=39 velocity=64 time=0
note_on channel=0 note=39 velocity=100 time=24
note_off channel=0 note=39 velocity=64 time=24
note_on channel=0 note=37 velocity=100 time=24
note_on channel=0 note=38 velocity=100 time=0
note_on channel=0 note=39 velocity=100 time=0
note_off channel=0 note=37 velocity=64 time=24
note_off channel=0 note=38 velocity=64 time=0
note_off channel=0 note=39 velocity=64 time=0
note_on channel=0 note=39 velocity=100 time=24
note_off channel=0 note=39 velocity=64 time=24
note_on channel=0 note=36 velocity=100 time=24
note_on channel=0 note=38 velocity=100 time=0
note_on channel=0 note=39 velocity=100 time=0
note_off channel=0 note=36 velocity=64 time=24
note_off channel=0 note=38 velocity=64 time=0
note_off channel=0 note=39 velocity=64 time=0
note_on channel=0 note=39 velocity=100 time=24
note_off channel=0 note=39 velocity=64 time=24
note_on channel=0 note=37 velocity=100 time=24
note_on channel=0 note=38 velocity=100 time=0
note_on channel=0 note=39 velocity=100 time=0
note_off channel=0 note=37 velocity=64 time=24
note_off channel=0 note=38 velocity=64 time=0
note_off channel=0 note=39 velocity=64 time=0
note_on channel=0 note=39 velocity=100 time=24
note_off channel=0 note=39 velocity=64 time=24
note_on channel=0 note=36 velocity=100 time=24
note_on channel=0 note=38 velocity=100 time=0
note_on channel=0 note=39 velocity=100 time=0
note_off channel=0 note=36 velocity=64 time=24
note_off channel=0 note=38 velocity=64 time=0
note_off channel=0 note=39 velocity=64 time=0
note_on channel=0 note=39 velocity=100 time=24
note_off channel=0 note=39 velocity=64 time=24
note_on channel=0 note=37 velocity=100 time=24
note_on channel=0 note=38 velocity=100 time=0
note_on channel=0 note=39 velocity=100 time=0
note_off channel=0 note=37 velocity=64 time=24
note_off channel=0 note=38 velocity=64 time=0
note_off channel=0 note=39 velocity=64 time=0
note_on channel=0 note=39 velocity=100 time=24
note_off channel=0 note=39 velocity=64 time=24
note_on channel=0 note=36 velocity=100 time=24
note_on channel=0 note=38 velocity=100 time=0
note_on channel=0 note=39 velocity=100 time=0
note_off channel=0 note=36 velocity=64 time=24
note_off channel=0 note=38 velocity=64 time=0
note_off channel=0 note=39 velocity=64 time=0
note_on channel=0 note=39 velocity=100 time=24
note_off channel=0 note=39 velocity=64 time=24
note_on channel=0 note=37 velocity=100 time=24
note_on channel=0 note=38 velocity=100 time=0
note_on channel=0 note=39 velocity=100 time=0
note_off channel=0 note=37 velocity=64 time=24
note_off channel=0 note=38 velocity=64 time=0
note_off channel=0 note=39 velocity=64 time=0
note_on channel=0 note=39 velocity=100 time=24
note_off channel=0 note=39 velocity=64 time=24
note_on channel=0 note=36 velocity=100 time=24
note_off channel=0 note=36 velocity=100 time=96
note_on channel=0 note=37 velocity=100 time=0
note_on channel=0 note=36 velocity=100 time=96
note_off channel=0 note=37 velocity=100 time=0
note_off channel=0 note=36 velocity=100 time=96
note_on channel=0 note=37 velocity=100 time=0
note_on channel=0 note=36 velocity=100 time=96
note_off channel=0 note=37 velocity=100 time=0
note_off channel=0 note=36 velocity=100 time=96
note_on channel=0 note=37 velocity=100 time=0
note_on channel=0 note=36 velocity=100 time=96
note_off channel=0 note=37 velocity=100 time=0
note_off channel=0 note=36 velocity=100 time=96
note_on channel=0 note=37 velocity=100 time=0
note_on channel=0 note=36 velocity=100 time=96
note_off channel=0 note=37 velocity=100 time=0
note_off channel=0 note=36 velocity=100 time=96
note_on channel=0 note=37 velocity=100 time=0
note_on channel=0 note=36 velocity=100 time=96
note_off channel=0 note=37 velocity=100 time=0
note_off channel=0 note=36 velocity=100 time=96
note_on channel=0 note=37 velocity=100 time=0
note_on channel=0 note=36 velocity=100 time=96
note_off channel=0 note=37 velocity=100 time=0
note_off channel=0 note=36 velocity=100 time=96
note_on channel=0 note=37 velocity=100 time=0
note_on channel=0 note=36 velocity=100 time=96
note_off channel=0 note=37 velocity=100 time=0
note_off channel=0 note=36 velocity=100 time=96
note_on channel=0 note=37 velocity=100 time=0
note_off channel=0 note=37 velocity=100 time=96
<meta message end_of_track time=0>
